HIERARCHY
ROOT Hips
{
    OFFSET 6.9859232902526855 50.01128005981445 -9.886905670166016
    CHANNELS 6 Xposition Yposition Zposition Zrotation Xrotation Yrotation
    JOINT RightUpLeg
    {
        OFFSET -6.9859232902526855 0.0 0.0
        CHANNELS 3 Zrotation Xrotation Yrotation
        JOINT RightLeg
        {
            OFFSET 0.0 -25.294021606445312 0.0
            CHANNELS 3 Zrotation Xrotation Yrotation
            JOINT RightFoot
            {
                OFFSET 0.0 -24.71725845336914 0.0
                CHANNELS 3 Zrotation Xrotation Yrotation
                End Site
                {
                    OFFSET 0.0 0.0 9.886905670166016
                }
            }
        }
    }
    JOINT LeftUpLeg
    {
        OFFSET 6.9859232902526855 0.0 0.0
        CHANNELS 3 Zrotation Xrotation Yrotation
        JOINT LeftLeg
        {
            OFFSET 0.0 -25.294021606445312 0.0
            CHANNELS 3 Zrotation Xrotation Yrotation
            JOINT LeftFoot
            {
                OFFSET 0.0 -24.71725845336914 0.0
                CHANNELS 3 Zrotation Xrotation Yrotation
                End Site
                {
                    OFFSET 0.0 0.0 9.886905670166016
                }
            }
        }
    }
    JOINT Spine
    {
        OFFSET 0.0 17.402687072753906 0.0
        CHANNELS 3 Zrotation Xrotation Yrotation
        JOINT Spine3
        {
            OFFSET 0.0 18.424903869628906 0.0
            CHANNELS 3 Zrotation Xrotation Yrotation
            JOINT Neck
            {
                OFFSET 0.0 14.096488952636719 0.0
                CHANNELS 3 Zrotation Xrotation Yrotation
                End Site
                {
                    OFFSET 0.0 5.638596057891846 0.0
                }
            }
            JOINT LeftArm
            {
                OFFSET 11.567941665649414 0.0 0.0
                CHANNELS 3 Zrotation Xrotation Yrotation
                JOINT LeftForeArm
                {
                    OFFSET 19.85306167602539 0.0 0.0
                    CHANNELS 3 Zrotation Xrotation Yrotation
                    JOINT LeftHand
                    {
                        OFFSET 16.104482650756836 0.0 0.0
                        CHANNELS 3 Zrotation Xrotation Yrotation
                        End Site
                        {
                            OFFSET 6.441793441772461 0.0 0.0
                        }
                    }
                }
            }
            JOINT RightArm
            {
                OFFSET -11.567941665649414 0.0 0.0
                CHANNELS 3 Zrotation Xrotation Yrotation
                JOINT RightForeArm
                {
                    OFFSET -19.85306167602539 0.0 0.0
                    CHANNELS 3 Zrotation Xrotation Yrotation
                    JOINT RightHand
                    {
                        OFFSET -16.104482650756836 0.0 0.0
                        CHANNELS 3 Zrotation Xrotation Yrotation
                        End Site
                        {
                            OFFSET -6.441793441772461 0.0 0.0
                        }
                    }
                }
            }
        }
    }
}
MOTION
Frames: 10
Frame Time: 0.03333333333333333
-8.753132820129395 1.6411851644515991 -4.232931137084961 -0.4564647963314671 -4.730491919271551 -16.02363351332407 0.782231376113256 10.273560768376187 -7.231149864477027 2.9976551750626474 19.455725791175567 -0.36725156660469094 2.0690185772110117e-32 -2.9817700138720468e-15 7.951386703658791e-16 0.8854860629731314 7.7883502959273105 6.825315078792176 3.0312645275073757 23.660267210282726 -2.8478833420668925 7.951386703658792e-16 3.1805546814635168e-15 -5.963540027744094e-16 1.4465831851753266 10.908160239241948 -0.35781653992936246 4.4454229171003075e-09 2.3283244423884863e-08 -1.3514268814109456 -4.466706600044226 -9.433804454667598 177.49760153591185 97.5624135112543 -16.273562982359188 169.12421709389633 -1.989163723371047e-06 -2.78692043203911e-06 25.068403118782935 0.0 0.0 0.0 -94.71942644619348 -19.117421886830467 -170.0752572649079 -6.8410021249794e-07 -1.0113392580203034e-06 -22.791492421374027 -8.001082870556661e-15 7.951386703658794e-16 5.551866515516215e-32
-8.776707649230957 1.650585651397705 -4.149418354034424 -0.5518879798786751 -5.010329465395623 -15.985415646959119 0.7966680103135005 10.594271039373993 -7.921508201555031 2.7974472176347818 19.529871034193192 -0.23919622251437336 2.344887720839147e-32 -3.379339349054986e-15 7.951386703658791e-16 0.9123482361495046 8.079197613689287 7.481376218778984 3.324302758243 23.70672487676057 -3.019542240612519 0.0 0.0 -1.987846675914698e-16 1.492954195084137 11.224736194522444 -0.37093006100924225 8.28946177192049e-08 -1.9195345017539235e-08 -1.3957448800986854 -4.484777794410943 -9.441248910066102 177.412972030232 97.49394290831503 -16.26252107318963 169.1341747577802 -1.4499384658261453e-06 -3.533914346008577e-07 25.024637673900983 -3.180554681463516e-15 -3.180554681463516e-15 -6.361109362927032e-15 -94.67830003148153 -19.158158458998443 -170.0786229666372 -6.916888264887318e-07 -6.582212296102695e-07 -22.72781470876592 5.839299610499426e-15 7.951386703658794e-16 -7.951386703658794e-16
-8.775062561035156 1.6443703174591064 -4.148943901062012 -0.5409628590085797 -5.024685443422007 -15.948260525320805 0.7845945040516146 10.642419882399519 -7.884816049438365 2.844512090236702 19.54681047379967 -0.24655101998763768 6.896728590703373e-34 1.987846675914698e-16 -3.975693351829396e-16 0.9161919405732353 8.09652478552031 7.452316423514265 3.3187321146735913 23.771802124502216 -3.025268536757717 -1.5902773407317584e-15 -9.93923337957349e-17 -1.987846675914698e-16 1.5038855211489603 11.24985604602994 -0.3723628248718648 5.2533737290106956e-08 3.2342765332414753e-07 -1.4352106747455564 -4.490594532563294 -9.442520976575656 177.3938604774212 97.44179121869053 -16.16910340676963 169.14867306080706 3.896641352211624e-06 -2.6937942928186412e-06 24.956423294257625 -9.541664044390549e-15 0.0 0.0 -94.63335082790455 -19.16850467898343 -170.0791238575317 3.8631262952320384e-06 -1.6162713471531006e-06 -22.671851887173737 1.4163407565892227e-15 -7.951386703658794e-16 9.827838241752306e-33
-8.779091835021973 1.6388846635818481 -4.15054178237915 -0.5323514457462611 -5.0387301602544285 -15.91465637102783 0.7770451496615856 10.687977712630616 -7.8465354610518165 2.888231422884699 19.556916023087158 -0.2479729215775458 1.5902773407317582e-15 -1.9878466759146975e-16 1.1927080055488186e-15 0.9224842528166082 8.113566751486038 7.421020771289551 3.3148160086530525 23.821231015814103 -3.034797050616786 0.0 -9.93923337957349e-17 0.0 1.5184360398375318 11.272299886432476 -0.3735983137153556 -2.53605293964851e-07 3.1994923769047536e-07 -1.471469601364347 -4.492725130264846 -9.438248614330206 177.41449681500285 97.39163190202216 -16.115595877622898 169.1591630246141 1.4357641377979793e-06 1.3676304405744011e-06 24.889186547581943 -1.5902773407317584e-15 0.0 0.0 -94.57896682298359 -19.253463534199216 -170.0729825792781 1.4640853307379368e-06 -7.969605061731912e-07 -22.63183839621505 1.3666445896913544e-15 9.483001812217137e-33 7.95138670365879e-16
-8.784353256225586 1.6284983158111572 -4.151027679443359 -0.514785513064157 -5.062350785091437 -15.883903521809048 0.7680077355741385 10.741459783757835 -7.84106901020714 2.9062865738354233 19.556721254307107 -0.24793090004142168 -5.517382872562698e-33 1.9878466759146977e-16 3.1805546814635164e-15 0.930822300857175 8.139999989646652 7.416154899240853 3.3077663715672405 23.86072780630649 -3.0473658262298553 7.951386703658792e-16 2.758691436281349e-33 3.975693351829396e-16 1.5175629625617706 11.313231004654048 -0.37596873103700046 1.0357908846166193e-07 -4.280685654156402e-08 -1.5044763552484424 -4.485653043745525 -9.455089928981602 177.367476586521 97.3351003636613 -16.09577951550234 169.17273843380926 -4.198915888848598e-06 -2.5618440792368466e-06 24.826777051600903 7.951386703658792e-16 -2.2069531490250793e-32 -3.1805546814635168e-15 -94.51755003290303 -19.32974217027547 -170.07501113923146 -1.7485325195411092e-06 4.863766069649315e-07 -22.60879965159206 9.069550458860809e-15 6.293264839016827e-32 7.951386703658792e-16
-8.795681953430176 1.6201823949813843 -4.155413627624512 -0.510720398412014 -5.076402593560498 -15.855053450779298 0.765084782114408 10.790751362123585 -7.817684834277574 2.94168992205393 19.558739575314508 -0.2481001136182195 0.0 0.0 1.5902773407317584e-15 0.9578535042629017 8.161514755499422 7.3938223729522585 3.2921206588777605 23.886159412032228 -3.065266765267759 7.951386703658792e-16 -1.1034765745125397e-32 -1.5902773407317584e-15 1.5354565241839178 11.342990156905705 -0.3800649488241941 3.434255787531072e-08 -3.7882885791777565e-07 -1.5372035592526865 -4.475359126989758 -9.463810757853189 177.42151493245538 97.2756426049374 -16.107071306288287 169.18014418142323 1.3427376142395362e-06 -1.0795853085807068e-06 24.776120590372106 -2.3854160110976384e-15 3.1805546814635176e-15 3.1805546814635176e-15 -94.45408972046187 -19.527846890744033 -170.06540501482144 -3.190162233737891e-06 9.97848114394198e-08 -22.608373263557 -1.8884543421189634e-15 7.951386703658794e-16 1.3103784322336408e-32
-8.806591987609863 1.6184147596359253 -4.159379482269287 -0.49304883278406425 -5.092627399179641 -15.83331403790867 0.7614277648520388 10.825232997264273 -7.805246161981142 2.953862197006642 19.553704683126064 -0.2478532380918266 0.0 0.0 -4.373262687012336e-15 0.9671483800790186 8.172987997106091 7.382155850173961 3.2867792993010787 23.914306009357315 -3.079784617398197 0.0 0.0 1.5902773407317584e-15 1.5366904336687952 11.375380347656927 -0.3830005447180602 1.906650822379231e-07 -4.0434482052534616e-08 -1.5625860512493777 -4.463101420239179 -9.480638368023014 177.41839037048206 97.21687837492553 -16.128385583337238 169.17476947085166 -6.195611062943642e-06 -4.632656382880554e-06 24.749331801499768 -1.5902773407317584e-15 -4.4139062980501586e-32 3.1805546814635168e-15 -94.38065585531847 -19.653046130473463 -170.04697651149004 -2.3962019918338164e-06 -1.9299975291678955e-06 -22.62687799476417 -8.498044539535334e-15 0.0 0.0
-8.822296142578125 1.6181279420852661 -4.165703773498535 -0.4784368324963812 -5.1072307959405014 -15.818264549791648 0.7657259155485425 10.855024628028227 -7.800380022749677 2.961119597339686 19.543668508563005 -0.2491669750486645 2.069018577211012e-33 -1.9878466759146975e-16 1.1927080055488184e-15 0.9852481981819453 8.18213624154198 7.375976070957585 3.269666867666051 23.93195079134481 -3.0883154095014635 7.951386703658792e-16 -2.758691436281349e-33 -3.975693351829396e-16 1.540165948028313 11.407753555543042 -0.3857350671098742 -3.018052395603911e-07 6.479691706690558e-07 -1.5826085966658565 -4.446797426275754 -9.501868806798546 177.42806856153652 97.15294998249566 -16.184518938637023 169.16225172620628 -1.7268625720264233e-06 -6.458687731281076e-06 24.735637976446434 7.951386703658792e-15 3.1805546814635168e-15 -2.2069531490250793e-31 -94.30566856517216 -19.75745839245792 -170.0249793626854 -5.02492330903967e-06 6.605097589379339e-07 -22.659221332007714 1.5654292572828246e-15 -7.951386703658792e-16 1.0862347530357812e-32
-8.836529731750488 1.6136646270751953 -4.1712565422058105 -0.4454779939707578 -5.126171158399877 -15.80431776385364 0.7553280614989044 10.88239313814648 -7.806615914968379 2.958371405455399 19.52382680019012 -0.25803660392353656 1.5902773407317584e-15 -3.1805546814635168e-15 1.5902773407317584e-15 0.9820859516312072 8.188217961292606 7.378092960099541 3.269192210849153 23.943938815369343 -3.09332631900407 -3.4138806523981697e-32 3.2799470152592526e-15 1.1927080055488192e-15 1.519452857038215 11.442495376361821 -0.3882783942888814 1.0248092807328053e-08 3.9618038401267766e-07 -1.6005473898424345 -4.427671673353731 -9.53262461477579 177.3861095308796 97.09768506545556 -16.24914311986477 169.14159924871043 3.0177123511247853e-06 -2.140141665552457e-06 24.74785106325814 7.156248033292914e-15 1.9862578341225716e-31 3.1805546814635168e-15 -94.22635588883041 -19.78938700697579 -170.00203470474952 3.0024797597378737e-06 -1.1179835265852389e-06 -22.708145197610996 -2.459960261444439e-15 -7.951386703658792e-16 7.951386703658792e-16
-8.857197761535645 1.6144063472747803 -4.180180072784424 -0.4324754094209559 -5.134481570827943 -15.79403838471 0.7741976181043945 10.897571995045526 -7.792166254615674 2.956355603397508 19.512138647438128 -0.2534245265584348 -4.4139062980501586e-32 -3.1805546814635164e-15 -1.5902773407317582e-15 1.0104504498402338 8.18455942917432 7.36118817751009 3.252824963000874 23.969405757345555 -3.1119517150168376 -5.344964657795114e-33 3.0811623476677826e-15 1.9878466759146985e-16 1.522024250482923 11.46716848281895 -0.38941496479887355 3.5798968542491277e-07 9.749859966826927e-07 -1.6174745852753538 -4.405981648204636 -9.553512220861416 177.39807387801375 97.03064475043257 -16.324204528950833 169.1038602566813 -1.7793877483094051e-06 -6.188947986746965e-07 24.790013843183903 6.3611093629270335e-15 -3.1805546814635168e-15 -3.1805546814635168e-15 -94.16123557421105 -19.824726235729518 -169.9669809218288 -2.702210677407077e-06 -1.5272913414051287e-07 -22.78413768456561 -4.050237602176197e-15 2.8104169007116245e-32 -7.951386703658792e-16
